<?xml version="1.0" encoding="UTF-8"?>
<svg width="48px" height="48px" viewBox="0 0 48 48" version="1.1" xmlns="http://www.w3.org/2000/svg" xmlns:xlink="http://www.w3.org/1999/xlink">
    <title>38F6FAE3-FAB7-494D-8305-83728DF5DE8B</title>
    <g id="Web" stroke="none" stroke-width="1" fill="none" fill-rule="evenodd">
        <g id="select-amount-web" transform="translate(-24.000000, -497.000000)">
            <g id="gem-set-6" transform="translate(24.000000, 497.000000)">
                <rect id="Rectangle-Copy-2" x="0" y="0" width="48" height="48"></rect>
                <g id="Group-75-Copy" transform="translate(2.000000, 5.000000)">
                    <path d="M23.8591549,2.4516129 C33.2650587,2.4516129 40.9014085,10.0039852 40.9014085,19.3064516 C40.9014085,28.6088899 33.2650587,36.1612903 23.8591549,36.1612903 C14.4532796,36.1612903 6.81690141,28.6088899 6.81690141,19.3064516 C6.81690141,10.0039852 14.4532796,2.4516129 23.8591549,2.4516129 Z M23.8591549,5.26075269 C31.6974554,5.26075269 38.0610329,11.5544056 38.0610329,19.3064516 C38.0610329,27.0584695 31.6974554,33.3521505 23.8591549,33.3521505 C16.0209113,33.3521505 9.657277,27.0584695 9.657277,19.3064516 C9.657277,11.5544056 16.0209113,5.26075269 23.8591549,5.26075269 Z" id="Fill-1" fill-opacity="0.9" fill="#FFFFFF"></path>
                    <path d="M23.5492958,0 C12.9462983,0 4.33802817,8.51368889 4.33802817,19 C4.33802817,29.4863674 12.9462983,38 23.5492958,38 C34.1522078,38 42.7605634,29.4863674 42.7605634,19 C42.7605634,8.51368889 34.1522078,0 23.5492958,0 Z M23.5492958,1.12592593 C33.5240705,1.12592593 41.6221179,9.13491852 41.6221179,19 C41.6221179,28.8649689 33.5240705,36.8740741 23.5492958,36.8740741 C13.5746349,36.8740741 5.47647366,28.8649689 5.47647366,19 C5.47647366,9.13491852 13.5746349,1.12592593 23.5492958,1.12592593 Z" id="Fill-2" fill-opacity="0.6" fill="#FFFFFF"></path>
                    <polygon id="Fill-3" fill="#A65302" points="40.2816901 9.80645161 6.81690141 9.80645161 11.1370309 22.6774194 35.9615606 22.6774194"></polygon>
                    <polygon id="Stroke-4" stroke="#964304" stroke-width="2.47887324" stroke-linecap="round" stroke-linejoin="round" points="40.2816901 9.80645161 6.81690141 9.80645161 11.1370309 22.6774194 35.9615606 22.6774194"></polygon>
                    <path d="M6.81690141,9.19354839 L40.2816901,9.19354839 C40.2154482,7.48920062 38.9844993,5.29476254 37.3474582,4.29032258 L9.75104696,4.29032258 C7.84275936,5.21785527 6.81911907,7.32661142 6.81690141,9.19354839 Z" id="Fill-5" fill="#FFD200"></path>
                    <path d="M6.81690141,9.19354839 L40.2816901,9.19354839 C40.2154482,7.48920062 38.9844993,5.29476254 37.3474582,4.29032258 L9.75104696,4.29032258 C7.84275936,5.21785527 6.81911907,7.32661142 6.81690141,9.19354839 Z" id="Stroke-6" stroke="#964304" stroke-width="2.47887324" stroke-linecap="round" stroke-linejoin="round"></path>
                    <path d="M9.91549296,7.35483871 L37.1830986,7.35483871 C37.154752,5.94586898 35.209611,4.63636577 34.295151,4.29032258 L12.8033555,4.29032258 C11.7077893,4.6934824 10.0113327,6.26265731 9.91549296,7.35483871 Z" id="Fill-7" fill="#D58040"></path>
                    <path d="M9.91549296,7.35483871 L37.1830986,7.35483871 C37.154752,5.94586898 35.209611,4.63636577 34.295151,4.29032258 L12.8033555,4.29032258 C11.7077893,4.6934824 10.0113327,6.26265731 9.91549296,7.35483871 Z" id="Stroke-8" stroke="#964304" stroke-width="2.47887324" stroke-linecap="round" stroke-linejoin="round"></path>
                    <polygon id="Fill-9" fill="#71D8FF" points="22.3098592 11.9809408 25.3664049 8.58064516 33.545772 9.95917882 35.3239437 14.1744442 27.7199493 19.6129032"></polygon>
                    <path d="M35.8754748,15.3225806 L22.3098592,12.7197874 L22.3779593,12.2580645 L35.943662,14.8608246 C35.9210296,15.0147323 35.8981072,15.1686399 35.8754748,15.3225806 Z" id="Fill-10" fill="#0092FF"></path>
                    <path d="M26.3644462,12.8850694 C26.3777078,12.8949321 26.3811811,12.8970497 26.392864,12.9083919 C26.4051784,12.9204303 26.4149667,12.933542 26.4247551,12.9474949 L26.4294914,12.955298 C26.4515941,12.9963735 26.46454,13.0405819 26.4765386,13.0849353 C26.491379,13.1404279 26.5049564,13.1961815 26.5179023,13.2520221 C26.5598974,13.430045 26.5981036,13.608793 26.6363097,13.787541 C26.742087,14.2867708 26.8424966,14.7869578 26.9422746,15.2872319 C27.2457134,16.8067353 27.5381009,18.3280662 27.8292254,19.8496001 L27.8873239,20.1550556 L27.447164,20.2258065 C27.3426496,19.6761606 27.2371881,19.1266017 27.1314107,18.5771009 C26.9046999,17.4020109 26.6770419,16.227037 26.44149,15.0534554 C26.3546578,14.6221627 26.26751,14.190957 26.17531,13.7606505 C26.1449977,13.6198741 26.1143696,13.4790977 26.0815313,13.3388434 C26.0733217,13.3040047 26.0629019,13.2615078 26.0540608,13.2264079 C26.0464827,13.1960945 26.0392204,13.1642145 26.028169,13.1346263 C26.0316423,13.1422844 26.0316423,13.1420813 26.0357471,13.1494784 C26.0483772,13.169523 26.0521663,13.1773552 26.073006,13.1969937 C26.079321,13.2030274 26.0875306,13.2070595 26.0947929,13.2121069 C26.1841511,13.1028624 26.245723,12.8027733 26.3644462,12.8850694 Z" id="Fill-11" fill="#0092FF"></path>
                    <path d="M30.9064856,13.8820666 C30.914208,13.8794636 30.9222061,13.8780438 30.9293769,13.8741985 C30.9503375,13.8628401 30.970195,13.8465124 30.9859155,13.8274929 C30.975711,13.8412768 30.9671612,13.8562144 30.9580599,13.8707969 C30.8744931,14.0105588 30.7961664,14.1540181 30.7178397,14.2972703 C30.6271022,14.4634169 30.537192,14.6302142 30.4478334,14.7972185 C30.213405,15.2352869 29.981183,15.6749231 29.7500642,16.1148846 C29.0793233,17.3903116 28.4146499,18.6694359 27.7516313,19.9494181 L27.6087679,20.2258065 L27.2676056,20.0228042 C27.5249253,19.5250153 27.7830723,19.0275517 28.0412193,18.5302065 C28.5944702,17.4665668 29.1482728,16.4031638 29.7081429,15.3436948 C29.897892,14.9852241 30.0879169,14.6270492 30.2806998,14.2706194 C30.3559927,14.1314195 30.4315613,13.9924267 30.5087848,13.8544692 C30.5407774,13.7975292 30.57277,13.7407075 30.6058657,13.6845661 C30.6276538,13.6476512 30.6497176,13.6110321 30.6739879,13.5758328 L30.6852956,13.5604812 C30.6971549,13.5458395 30.6982581,13.5437393 30.7109448,13.5309907 C30.732457,13.5094866 30.7581063,13.4951407 30.7856861,13.4842555 L30.7867893,13.483871 C30.82678,13.616593 30.8667707,13.7493446 30.9064856,13.8820666 Z" id="Fill-12" fill="#0092FF"></path>
                    <path d="M29.9184475,9.72873058 C29.9396956,9.7366125 29.9456451,9.73766342 29.9651935,9.74896083 C29.994091,9.76603832 30.0181723,9.79020954 30.0343209,9.81832171 C30.0382872,9.8251527 30.0414036,9.83277189 30.0450866,9.83986562 L31.5435082,13.5075583 L33.7510523,10.4360538 L34.084507,10.6421923 L31.6610814,14.0143655 L31.6452161,14.0333872 C31.6392666,14.0390359 31.6336005,14.0450787 31.6270843,14.0503859 C31.6143354,14.0609739 31.5998867,14.0700119 31.584588,14.0772107 C31.5058281,14.1140455 31.4075198,14.09773 31.3474583,14.0378274 C31.3358426,14.0261096 31.3256435,14.0130256 31.3174276,13.9989433 C31.3134612,13.9919021 31.3103448,13.9844143 31.3069451,13.9771366 L29.787842,10.2597091 L26.898373,13.2940108 L26.8802412,13.3106154 C26.859843,13.3254071 26.8400113,13.3379919 26.8150801,13.3461629 C26.7419864,13.3701502 26.6584102,13.352048 26.6042982,13.3005003 C26.586733,13.2836067 26.5725676,13.2635866 26.5629351,13.2418063 C26.5595354,13.2345549 26.5575522,13.226962 26.5547191,13.2195267 L25.4084507,9.29049597 L25.7951676,9.19354839 L26.844261,12.7892266 L29.7073822,9.78285308 L29.725514,9.76603832 C29.7325967,9.76104644 29.7388295,9.75579183 29.7461956,9.75132541 C29.7745265,9.73372246 29.8079569,9.72295051 29.8422373,9.72058593 C29.8651854,9.71900955 29.8708515,9.72058593 29.8935163,9.72295051 C29.9020155,9.72505235 29.9102315,9.72689147 29.9184475,9.72873058 Z" id="Fill-13" fill="#0092FF"></path>
                    <path d="M33.2851623,9.41318561 C33.32146,9.42649061 33.3313594,9.42822604 33.3654573,9.4478943 C33.4160542,9.47710744 33.4603264,9.51817939 33.4941493,9.56792852 C33.5166979,9.60090177 33.5197228,9.61102514 33.5367717,9.64718002 L35.2933629,14.0181899 C35.306562,14.0566298 35.3115117,14.0659433 35.3181113,14.10635 C35.3359852,14.2128478 35.3123367,14.3245519 35.2532154,14.4130013 C35.2364414,14.4381361 35.2169176,14.4611885 35.1951939,14.4817534 C35.1844696,14.4920214 35.1723704,14.5009589 35.1610961,14.5105616 L27.6493864,20.1499138 C27.6370122,20.1580992 27.6251879,20.1670367 27.6125387,20.1744702 C27.5869653,20.189366 27.560017,20.2012248 27.5319687,20.2097863 C27.4189507,20.2443214 27.2946584,20.2222814 27.1986894,20.1508104 C27.1747659,20.1330801 27.1530422,20.1126019 27.1335184,20.0897231 C27.123894,20.0783271 27.1153695,20.065803 27.1062951,20.0538286 L21.7617812,12.139987 C21.74113,12.105423 21.7344204,12.09744 21.7195163,12.0595207 C21.6801938,11.9596175 21.6803588,11.8451656 21.7199563,11.7453782 C21.7312306,11.7170038 21.7454747,11.6900756 21.7624687,11.6650565 C21.7709656,11.6525613 21.780755,11.6411364 21.7898845,11.6291619 L24.8093624,8.10322182 C24.8368607,8.07458715 24.8426353,8.06619922 24.8742584,8.04277085 C24.9333797,7.99880651 25.0040503,7.97277499 25.0763709,7.96843641 C25.1151435,7.96641173 25.1247679,7.96901489 25.1629905,7.97364271 L33.2428149,9.40306224 C33.257114,9.40653311 33.2711382,9.40971474 33.2851623,9.41318561 Z M25.2446604,8.81793158 L22.5765557,11.9333257 L27.5146448,19.2455789 L34.4554898,14.0349079 L32.9032109,10.1728142 C30.3502691,9.72116738 27.7973273,9.26943379 25.2446604,8.81793158 Z" id="Fill-14" fill="#0092FF"></path>
                    <path d="M26.7065534,9.20706114 C26.8022222,9.22730647 26.8920137,9.2625824 26.9720098,9.31595643 C27.0249052,9.35153912 27.0725763,9.3935635 27.1130641,9.44110933 C27.2567306,9.60951359 27.3044017,9.83846977 27.2384458,10.0450641 C27.2103655,10.13353 27.1623678,10.2131616 27.1003301,10.2842963 C26.5423166,10.879294 25.9630796,11.4562856 25.3942912,12.0421423 C25.3214784,12.1147187 25.2356051,12.1728166 25.1366711,12.2102091 C25.0540629,12.2414974 24.9649245,12.2578163 24.875786,12.2580645 C24.786321,12.2583071 24.6971825,12.2424483 24.6142478,12.2115895 C24.5541691,12.1891663 24.497029,12.1588596 24.4454397,12.1218352 C24.2900187,12.0099645 24.1894522,11.8384007 24.1718204,11.6550272 C24.1652902,11.5867146 24.1701879,11.5175124 24.1861871,11.4506415 C24.2041454,11.376286 24.2358173,11.3049672 24.2792438,11.240673 C24.2968755,11.2148755 24.3164664,11.1907959 24.3370368,11.1671763 C24.8947238,10.5721786 25.4742873,9.99518696 26.0427492,9.40920761 C26.081931,9.3702507 26.1240514,9.33497476 26.1717225,9.30522028 C26.272942,9.24172359 26.3914668,9.20338018 26.5129303,9.195098 C26.5615809,9.19172378 26.6099051,9.19417776 26.6585558,9.19939246 C26.6827179,9.20307343 26.6823914,9.20276668 26.7065534,9.20706114 Z" id="Fill-15" fill-opacity="0.5" fill="#FFFFFF"></path>
                    <path d="M24.8914557,13.4924412 C25.2289415,13.5485145 25.4566567,13.864887 25.3997279,14.1984107 C25.343091,14.5319633 25.0231219,14.7572094 24.6859281,14.7011072 C24.3487343,14.645005 24.121019,14.3286614 24.1776559,13.9951377 C24.2345847,13.6615851 24.554262,13.436339 24.8914557,13.4924412 Z" id="Fill-16" fill-opacity="0.7" fill="#FFFFFF"></path>
                    <polygon id="Fill-17" fill="#71D8FF" points="27.2676056 16.8799829 31.342944 14.7096774 38.7430421 18.6526759 39.0422535 23.1538385 29.9146063 25.7419355"></polygon>
                    <path d="M39.4621337,23.9032258 L27.2676056,17.508742 L27.4674438,17.1612903 L39.6619718,23.5557741 C39.5953591,23.671582 39.5287464,23.7874179 39.4621337,23.9032258 Z" id="Fill-18" fill="#0092FF"></path>
                    <path d="M30.9562145,19.0279633 C30.9628627,19.0412232 30.9647622,19.0443278 30.9699857,19.0585451 C30.9754468,19.0736618 30.9790083,19.0890107 30.982095,19.105085 L30.9835196,19.1139636 C30.9880309,19.1594589 30.9854191,19.2050994 30.9818575,19.2505948 C30.9773463,19.307493 30.9721227,19.3642462 30.9664242,19.4209704 C30.9481416,19.6017913 30.9270099,19.7821771 30.9058781,19.9625047 C30.8465191,20.4660296 30.7828863,20.968829 30.7190161,21.4715124 C30.5247935,22.9983933 30.3224982,24.5237074 30.1187783,26.0487604 L30.0779393,26.3548387 L29.7464789,26.2885396 C29.820084,25.7377205 29.8934517,25.1867853 29.9665819,24.6358211 C30.1221024,23.4574093 30.2773854,22.2788815 30.4262577,21.099135 C30.4811054,20.6655942 30.5352407,20.2319372 30.5858146,19.797642 C30.6024351,19.6555269 30.6185807,19.5133248 30.6328269,19.3708616 C30.6366258,19.3354924 30.6406622,19.2922312 30.6437489,19.2563978 C30.6463607,19.2254098 30.6501597,19.1932033 30.6501597,19.1618672 C30.6503971,19.1701654 30.6506345,19.1700204 30.6515843,19.1782026 C30.6551458,19.2009503 30.6556207,19.2094807 30.6651181,19.2342884 C30.6679674,19.2418903 30.6727161,19.2482156 30.676515,19.2551791 C30.7695899,19.179102 30.8940063,18.9142539 30.9562145,19.0279633 Z" id="Fill-19" fill="#0092FF"></path>
                    <path d="M35.8493165,21.842831 C35.8575575,21.8429969 35.8657986,21.8444076 35.8737554,21.8433842 C35.8979101,21.8402863 35.922349,21.8324309 35.943662,21.8207862 C35.9294533,21.8296373 35.9163814,21.8399544 35.9030252,21.8498565 C35.7774207,21.9456419 35.6557947,22.0464336 35.5341686,22.1470594 C35.3932187,22.2637555 35.2531214,22.3814196 35.1133083,22.4993327 C34.746725,22.8086782 34.3818468,23.1202365 34.0175369,23.4322926 C32.9615498,24.3369291 31.9103936,25.2468485 30.8603741,26.1580403 L30.6338882,26.3548387 L30.3661972,26.0629464 C30.7739855,25.7084327 31.1826264,25.3544722 31.5912673,25.0006223 C32.465952,24.2441586 33.3409208,23.4880821 34.2210048,22.7375929 C34.5188182,22.4836774 34.8169158,22.2302043 35.1172867,21.9791654 C35.2346502,21.8811396 35.3522978,21.783418 35.4710822,21.6871071 C35.5199599,21.6473602 35.569406,21.6077793 35.6191363,21.5691387 C35.6521004,21.5437195 35.6853487,21.5187152 35.7200178,21.4955917 L35.7356473,21.4857449 C35.7518452,21.4767832 35.7535502,21.4752896 35.7700322,21.4682364 C35.7978812,21.4563704 35.8274352,21.4521661 35.8575575,21.4516129 L35.8586942,21.4516129 C35.8555683,21.5820281 35.8524424,21.7124157 35.8493165,21.842831 Z" id="Fill-20" fill="#0092FF"></path>
                    <path d="M35.4190444,16.5943737 C35.4363925,16.6088597 35.4417961,16.6118177 35.4560159,16.6293723 C35.4773456,16.6556903 35.4915654,16.6873162 35.496969,16.7204625 C35.4983909,16.7287283 35.4986753,16.7371324 35.4992441,16.7454535 L35.6124339,20.8708306 L38.7996635,18.5285269 L39.0422535,18.8405005 L35.5430412,21.4120916 L35.521427,21.4259694 C35.5137483,21.4296461 35.5060696,21.4338205 35.4981065,21.4369997 C35.4821803,21.4433857 35.465401,21.4477536 35.4480528,21.4499652 C35.3604587,21.461272 35.273149,21.4134738 35.2375995,21.334658 C35.2304896,21.3192597 35.2256549,21.3030321 35.2230953,21.2864175 C35.2216733,21.2780964 35.2213889,21.2696923 35.2205357,21.2613159 L35.105924,17.0799025 L31.2856282,19.1660201 L31.2625921,19.176774 C31.2378496,19.1848187 31.2145291,19.1909559 31.1880803,19.1910941 C31.1101557,19.1914535 31.0373502,19.1466133 31.0046446,19.0780261 C30.9938376,19.0555508 30.9875808,19.0311126 30.9861589,19.0063704 C30.9855901,18.9981322 30.9861589,18.9898663 30.9864433,18.9816005 L31.3004168,14.7096774 L31.7017,14.7375436 L31.4141753,18.6471515 L35.1997748,16.5801919 L35.2230953,16.5693274 C35.2310584,16.5667011 35.2393059,16.5635496 35.2475534,16.5614486 C35.2808277,16.5529892 35.3163773,16.5530721 35.3496517,16.5616697 C35.372119,16.5673922 35.3769537,16.5708755 35.3974302,16.5806065 C35.4048245,16.5851956 35.4119345,16.5897847 35.4190444,16.5943737 Z" id="Fill-21" fill="#0092FF"></path>
                    <path d="M39.1766088,18.2629613 C39.2088627,18.2877579 39.2182457,18.2928085 39.2458082,18.3225987 C39.2871519,18.3672554 39.318233,18.4208435 39.3355328,18.4784835 C39.3472615,18.5169482 39.3469683,18.5273348 39.3516598,18.5669694 L39.6612977,23.2389189 C39.6619453,23.2791813 39.6636435,23.2895393 39.6568995,23.3294879 C39.6393064,23.4348092 39.5783171,23.5307998 39.4891789,23.5929483 C39.4639622,23.6106112 39.4363997,23.6254492 39.4076644,23.637177 C39.3935899,23.6430266 39.3783426,23.6473068 39.3636817,23.6523574 L29.918258,26.3386377 C29.9030107,26.3420619 29.8880566,26.3463136 29.8728092,26.3488817 C29.8420214,26.354075 29.8109403,26.3558727 29.7798592,26.3542747 C29.6546552,26.3478544 29.5367817,26.2848214 29.4640637,26.1854352 C29.4458842,26.1607813 29.4306369,26.1342441 29.4189081,26.1063086 C29.4127506,26.0923552 29.4086455,26.0778025 29.4033676,26.0635352 L26.6641273,16.8653913 C26.6550375,16.8261276 26.6509325,16.8163973 26.6485867,16.7759922 C26.642136,16.6694724 26.6805475,16.562924 26.7538519,16.4835121 C26.7746704,16.4609126 26.7981278,16.4407101 26.8233445,16.4232184 C26.8362461,16.4144867 26.8497341,16.4071819 26.8629289,16.3991636 L31.08028,14.1464958 C31.1172254,14.1292894 31.1260219,14.1233542 31.1656063,14.1123113 C31.2400837,14.0915952 31.3198389,14.0915952 31.394023,14.1123113 C31.4339006,14.1233828 31.4426971,14.129318 31.4796426,14.1465529 L39.1376108,18.2391348 C39.1505124,18.247096 39.1637072,18.2550286 39.1766088,18.2629613 Z M31.2799613,14.9608747 L27.5534568,16.9512806 L30.0845125,25.45024 L38.8121391,22.9681536 L38.5385669,18.8401031 C36.118934,17.5470269 33.699301,16.2539508 31.2799613,14.9608747 Z" id="Fill-22" fill="#0092FF"></path>
                    <path d="M32.5519548,16.0298104 C32.6233379,16.078629 32.6854832,16.1397831 32.7341917,16.2153336 C32.7663841,16.2651981 32.792138,16.3199537 32.8108935,16.3775702 C32.8766779,16.5813965 32.8461652,16.8130621 32.7308325,16.9882801 C32.6815641,17.0633384 32.6185791,17.1238157 32.546916,17.1718961 C31.9165053,17.5621992 31.2743374,17.9288467 30.6377681,18.3071528 C30.5568673,18.3532336 30.4700878,18.3816574 30.3788294,18.3863639 C30.3024075,18.3903321 30.2254257,18.3781505 30.1529229,18.3506804 C30.0807,18.3232411 30.013236,18.2805748 29.9555696,18.2256038 C29.9132996,18.1856445 29.8763484,18.1392867 29.8458356,18.0882533 C29.7534575,17.9340146 29.7235046,17.7403704 29.7643749,17.5613379 C29.7797713,17.4946468 29.8044054,17.4306319 29.8377175,17.3722464 C29.8743889,17.3074009 29.9214177,17.2496614 29.9760048,17.2022886 C29.9978396,17.1832779 30.0210741,17.1665744 30.0448685,17.1506091 C30.6752792,16.7602752 31.3174472,16.3936585 31.9540164,16.0153524 C31.9974061,15.9906201 32.0421955,15.9702559 32.0895043,15.9567208 C32.1905604,15.9278664 32.298055,15.9284202 32.3988311,15.9583512 C32.4394215,15.9703482 32.4777724,15.9874517 32.5155635,16.0076313 C32.5337591,16.0183671 32.5337591,16.0182748 32.5519548,16.0298104 Z" id="Fill-23" fill-opacity="0.5" fill="#FFFFFF"></path>
                    <path d="M30.6643888,18.4627861 C30.9642511,18.6256193 31.0740351,18.9985273 30.909359,19.2949998 C30.744683,19.5915012 30.3677383,19.7000182 30.0678761,19.5372139 C29.7680138,19.3743807 29.6585218,19.0014727 29.8229058,18.7050002 C29.9875819,18.4084988 30.3648185,18.2999818 30.6643888,18.4627861 Z" id="Fill-24" fill-opacity="0.7" fill="#FFFFFF"></path>
                    <polygon id="Fill-25" fill="#71D8FF" points="7.43661972 17.9448722 9.24776626 12.7238399 18.984796 10.4193548 22.9295775 14.2781372 17.0140739 23.9032258"></polygon>
                    <path d="M23.5492958,14.5786463 L7.54923311,18.3870968 L7.43661972,17.9052247 L23.4367111,14.0967742 C23.4742202,14.2573982 23.511758,14.4180222 23.5492958,14.5786463 Z" id="Fill-26" fill="#0092FF"></path>
                    <path d="M12.6113295,16.5513859 C12.6284902,16.5564799 12.6330092,16.5572551 12.6494214,16.5645085 C12.6668594,16.5722326 12.6823845,16.5821161 12.6979651,16.5929962 L12.7062544,16.5992806 C12.7462869,16.6338036 12.7786401,16.6754692 12.8101062,16.7177163 C12.8494457,16.7705389 12.8876762,16.8241644 12.9255187,16.8780667 C13.0461154,17.049934 13.163524,17.2240438 13.2805444,17.3983473 C13.6074309,17.885074 13.9293827,18.3750674 14.25078,18.8653931 C15.2269761,20.3547529 16.1935521,21.8503694 17.158548,23.3469549 L17.3521127,23.6474458 L16.9538661,23.9032258 C16.6055772,23.3624584 16.256706,22.8220509 15.9075576,22.2818372 C15.160135,21.1269653 14.4121578,19.972398 13.6566677,18.8227585 C13.3790456,18.4002883 13.1008691,17.9781226 12.8181737,17.5590023 C12.7256885,17.4218517 12.6328151,17.2849227 12.537807,17.1494886 C12.5142144,17.1158792 12.4851603,17.0749334 12.4607083,17.041324 C12.4396108,17.0123103 12.4184855,16.981331 12.3943662,16.9544768 C12.4011307,16.9612318 12.4011862,16.960955 12.4083942,16.9671564 C12.4297135,16.9832413 12.4369216,16.9900241 12.4659203,17.0023992 C12.4747918,17.0061643 12.4846613,17.0071056 12.4940318,17.0094865 C12.5326505,16.8566663 12.4582963,16.5127933 12.6113295,16.5513859 Z" id="Fill-27" fill="#0092FF"></path>
                    <path d="M18.5359571,15.0708471 C18.5422533,15.0645147 18.5494557,15.0592144 18.5548456,15.051822 C18.5708006,15.0299515 18.5837268,15.0033945 18.5915493,14.9760564 C18.5871134,14.9952489 18.5843469,15.0150829 18.5812465,15.0346101 C18.55351,15.2209276 18.5322843,15.4085561 18.511011,15.5960173 C18.4863033,15.813383 18.4629312,16.030944 18.4399407,16.2485608 C18.3796025,16.8193689 18.3223409,17.3905955 18.2657709,17.9619337 C18.1018085,19.6180919 17.9451916,21.2752264 17.7902918,22.9325842 L17.7570462,23.2903226 L17.3521127,23.2388544 C17.4119739,22.5944845 17.4725744,21.9501983 17.533318,21.305912 C17.664154,19.9276539 17.7954909,18.5494515 17.9345549,17.1722814 C17.9816091,16.7063064 18.0292834,16.2404152 18.0802966,15.775026 C18.1002344,15.5932835 18.1205538,15.4115968 18.1427812,15.2302449 C18.1519631,15.155372 18.1614073,15.0805549 18.172044,15.0059609 C18.1790556,14.9568919 18.1865681,14.9079623 18.1965132,14.8595906 L18.2014738,14.8381943 C18.2074837,14.8171607 18.2077222,14.8144548 18.2152347,14.7949834 C18.2278508,14.7622056 18.2470971,14.7350349 18.2693482,14.7106259 L18.2702784,14.7096774 C18.35883,14.8300766 18.4474055,14.9504479 18.5359571,15.0708471 Z" id="Fill-28" fill="#0092FF"></path>
                    <path d="M14.0166958,11.3565327 C14.0447602,11.3558588 14.0519785,11.3543705 14.0798408,11.3589476 C14.121562,11.3658273 14.1611756,11.3832651 14.1940329,11.4092112 C14.2022328,11.4156697 14.2095376,11.423139 14.2172755,11.4301029 L17.8038029,15.0968481 L18.7269833,10.4193548 L19.2112676,10.5097451 L18.1977152,15.6451428 L18.1897463,15.6750202 C18.1857907,15.6845675 18.1824414,15.6943955 18.1778795,15.7036901 C18.1686979,15.7222792 18.1570911,15.7396609 18.1433187,15.7553858 C18.0729845,15.8357234 17.9531621,15.8619222 17.8542438,15.8185383 C17.834899,15.81003 17.8167379,15.7991629 17.8002804,15.7861618 C17.7920517,15.7796752 17.7847179,15.7721778 17.7769512,15.7652139 L14.1416864,12.0486543 L12.4257442,16.9984136 L12.4139063,17.0265219 C12.398084,17.0536755 12.3820884,17.0778526 12.358124,17.0990812 C12.2876454,17.1615317 12.183501,17.178773 12.0957275,17.1425494 C12.0669702,17.1306434 12.0405804,17.1134302 12.0184061,17.092005 C12.0110146,17.0848726 12.004576,17.0768698 11.9976753,17.0693162 L8.67605634,12.9282116 L9.0648581,12.6332287 L12.1047936,16.4231057 L13.8050001,11.5187522 L13.8170112,11.4902789 C13.8222372,11.4813493 13.8268857,11.4721109 13.8326892,11.4635184 C13.8559607,11.4291482 13.8883272,11.4008995 13.9259485,11.3820857 C13.9510679,11.3695338 13.9584304,11.3688318 13.9853977,11.3612502 C13.9958208,11.3596777 14.0062727,11.3581052 14.0166958,11.3565327 Z" id="Fill-29" fill="#0092FF"></path>
                    <path d="M19.444899,9.81018043 C19.49438,9.80705239 19.5069704,9.80420872 19.5565101,9.80904296 C19.630761,9.81672087 19.7030162,9.84032334 19.7666724,9.87814416 C19.8091686,9.90316846 19.8173861,9.91283694 19.8547757,9.94440168 L24.0176981,13.8760607 C24.0514485,13.9118057 24.0617204,13.9195973 24.0890142,13.9605178 C24.1609173,14.0683498 24.1858632,14.2020592 24.157689,14.327465 C24.1494715,14.3630962 24.1374387,14.3977606 24.1212972,14.4307756 C24.1133732,14.4472404 24.1033948,14.4627953 24.0945904,14.4788336 L17.8518209,24.28563 C17.8410794,24.3005309 17.8312184,24.3160573 17.8196259,24.330361 C17.7964408,24.3590252 17.7699981,24.3850732 17.7407967,24.4079932 C17.6230518,24.5004409 17.4648064,24.536584 17.3168622,24.5048486 C17.2801769,24.4970001 17.2444895,24.485142 17.2105337,24.4695586 C17.1935704,24.461767 17.1775757,24.4521554 17.1611114,24.4434537 L7.05403716,18.3726434 C7.0130671,18.3448039 7.00132782,18.339344 6.96561108,18.3050778 C6.87143276,18.2148197 6.81725602,18.0894991 6.81690141,17.9611358 C6.81690141,17.9246515 6.82092454,17.888281 6.82923007,17.8526782 C6.83339752,17.8349337 6.83958998,17.8176727 6.84475526,17.8001556 L8.75605572,12.4805294 C8.77495595,12.4361112 8.77789077,12.4239403 8.80427478,12.3829915 C8.85372647,12.3062124 8.92536539,12.2436516 9.00927185,12.2038971 C9.05402783,12.1827117 9.06682363,12.1811193 9.11439704,12.1674981 L19.3898711,9.81956454 C19.4082137,9.8164365 19.4265563,9.81330847 19.444899,9.81018043 Z M9.61234767,13.0517375 L7.92353579,17.7520407 L17.2623039,23.3613802 L23.0303959,14.300052 L19.3521293,10.8261386 C16.1055159,11.5679955 12.8589318,12.3098807 9.61234767,13.0517375 Z" id="Fill-30" fill="#0092FF"></path>
                    <path d="M10.8481408,12.8832855 C10.9545435,12.8664892 11.0619304,12.8660673 11.1677068,12.8870034 C11.2375187,12.9008201 11.3051238,12.9232328 11.3680171,12.9533449 C11.5905443,13.0599501 11.7431702,13.2610841 11.7703673,13.483576 C11.7819976,13.5788695 11.7694428,13.6731873 11.7386075,13.7647628 C11.4424215,14.5448558 11.1162649,15.3157991 10.8048998,16.0912512 C10.7638059,16.1882322 10.7030598,16.2762481 10.6195897,16.3493925 C10.5496883,16.4106187 10.4666358,16.4599002 10.3760384,16.493862 C10.285441,16.5278238 10.1876567,16.5463868 10.0892759,16.5482325 C10.0177344,16.5495773 9.94604377,16.5421415 9.87682832,16.526189 C9.66772073,16.4780149 9.48742061,16.3519502 9.38620681,16.1831169 C9.34851257,16.1202559 9.32197154,16.0522005 9.3078362,15.9821411 C9.29212033,15.9043032 9.29176247,15.8241185 9.30676263,15.7461488 C9.31278655,15.7148765 9.32176279,15.6844216 9.33199152,15.6540195 C9.62817757,14.8739266 9.95433411,14.1029833 10.2656992,13.3275311 C10.2877671,13.2754809 10.3145467,13.2257775 10.3491991,13.1792647 C10.4231264,13.0801215 10.5261891,12.998724 10.645922,12.9449335 C10.6940239,12.9233119 10.7441536,12.9071748 10.7959236,12.8940172 C10.8219278,12.8882427 10.8217191,12.8882954 10.8481408,12.8832855 Z" id="Fill-31" fill-opacity="0.5" fill="#FFFFFF"></path>
                    <path d="M11.6324269,17.7906722 C11.9652793,17.7130216 12.2992198,17.9172519 12.3777116,18.2464358 C12.4562033,18.5756197 12.2497212,18.9059036 11.9168688,18.9835303 C11.5840406,19.0611569 11.2500759,18.8569266 11.1715842,18.5277427 C11.0930924,18.1985588 11.2995746,17.8682988 11.6324269,17.7906722 Z" id="Fill-32" fill-opacity="0.7" fill="#FFFFFF"></path>
                    <polygon id="Fill-33" fill="#71D8FF" points="14.2535211 16.8253048 17.4135681 12.2580645 27.540084 12.6150249 30.3661972 17.3932968 22.023262 25.1290323"></polygon>
                    <path d="M30.349314,17.7741935 L14.2535211,17.1082497 L14.2705731,16.5483871 L30.3661972,17.2142982 C30.3605695,17.4009409 30.3549418,17.5875508 30.349314,17.7741935 Z" id="Fill-34" fill="#0092FF"></path>
                    <path d="M20.1557355,17.1719653 C20.1713586,17.1810864 20.175635,17.1829321 20.1899467,17.1938989 C20.2051421,17.2055344 20.2178573,17.2186679 20.2303444,17.2328177 L20.236873,17.240762 C20.2671784,17.2831313 20.2879617,17.3301817 20.3076901,17.3775797 C20.3323507,17.4368272 20.3556998,17.4965295 20.3785928,17.556419 C20.4514911,17.7472684 20.5206262,17.9394284 20.5893621,18.1316687 C20.7812868,18.6684809 20.9674811,19.2071121 21.1529912,19.7459037 C21.7165348,21.3823934 22.2687886,23.0223336 22.8192464,24.6627286 L22.9295775,24.9920541 L22.4650467,25.1290323 C22.2665364,24.5363962 22.0673704,23.9439474 21.8678622,23.3515789 C21.4403651,22.0850186 21.0122407,20.8186188 20.575307,19.5548939 C20.4147426,19.0904894 20.2535509,18.6262186 20.0870566,18.1636597 C20.0325753,18.0122909 19.9776948,17.861029 19.9202486,17.7106232 C19.9059939,17.6732825 19.8882896,17.6277301 19.8731797,17.5902022 C19.8601224,17.5577832 19.8476068,17.5235453 19.8309859,17.4923568 C19.835861,17.5003813 19.8360036,17.5001406 19.8414488,17.5077638 C19.8582123,17.5281728 19.863515,17.536331 19.8889168,17.5552421 C19.8966999,17.5610198 19.906222,17.5644168 19.9148888,17.5689908 C19.9947434,17.436426 20.0144148,17.0970432 20.1557355,17.1719653 Z" id="Fill-35" fill="#0092FF"></path>
                    <path d="M25.3326143,17.583703 C25.3401014,17.5795961 25.348313,17.576776 25.3553169,17.5714096 C25.3758459,17.5555294 25.3946842,17.5343376 25.4084507,17.5107911 C25.3997561,17.5276296 25.3925106,17.5455632 25.3850235,17.5631136 C25.3154666,17.7310875 25.2517061,17.9022922 25.1881871,18.0733053 C25.1142829,18.2715885 25.0418278,18.470474 24.9696142,18.6695238 C24.7802648,19.1916257 24.5938136,19.7150692 24.408087,20.2388139 C23.8695039,21.7570136 23.3378283,23.2783619 22.8078432,24.8004221 L22.6936298,25.1290323 L22.3098592,24.9576085 C22.5155592,24.365716 22.7219597,23.7741246 22.9285293,23.1826154 C23.3712059,21.9174581 23.814438,20.6525199 24.2648674,19.3908946 C24.4172647,18.964019 24.5703865,18.5374172 24.726648,18.1122665 C24.7875103,17.9462639 24.8488557,17.7804256 24.9121331,17.6154634 C24.938217,17.5473977 24.9645423,17.4794141 24.9918338,17.4120055 C25.0099475,17.3676779 25.0285444,17.3236514 25.0493148,17.2808571 L25.0589755,17.2621021 C25.0696023,17.2440041 25.0705683,17.2415126 25.0821611,17.2253586 C25.1019655,17.1981707 25.1270833,17.1782657 25.1543747,17.1619201 L25.1555823,17.1612903 C25.2145125,17.3021037 25.2734427,17.4428897 25.3326143,17.583703 Z" id="Fill-36" fill="#0092FF"></path>
                    <path d="M22.7840819,12.294054 C22.8105971,12.3000395 22.8177953,12.3004232 22.842736,12.3109617 C22.8801047,12.3267439 22.9127216,12.3513252 22.9367343,12.3818153 C22.9427234,12.3894122 22.947616,12.3976742 22.9530427,12.4056037 L25.3530517,16.4658466 L27.4562755,12.5718922 L27.8873239,12.7645525 L25.5779954,17.0396839 L25.5628117,17.0640862 C25.5563446,17.0715552 25.550721,17.079408 25.5439727,17.0864933 C25.5304761,17.1006896 25.5150112,17.1132233 25.4978592,17.123813 C25.4106935,17.1779891 25.2911922,17.1729756 25.2096501,17.1117141 C25.1936228,17.0997432 25.1795638,17.0859562 25.1674731,17.07066 C25.1615683,17.0630375 25.1565071,17.0547499 25.1511647,17.0467949 L22.7185951,12.9314038 L19.798685,16.8792274 L19.7801552,16.9011485 C19.7581389,16.9213047 19.736713,16.9388007 19.708595,16.9518459 C19.625872,16.9902399 19.5234945,16.9810571 19.4506408,16.928697 C19.4267405,16.911508 19.4065237,16.8902263 19.39134,16.8662077 C19.3862788,16.8582271 19.3823704,16.8496838 19.3778715,16.8414218 L17.3521127,12.4263482 L17.7952799,12.2580645 L19.649238,16.2986884 L22.5423517,12.3871101 L22.5611626,12.3648821 C22.5684171,12.3582827 22.5752497,12.3512229 22.5829541,12.3450584 C22.6138838,12.320298 22.6517587,12.3030322 22.6920799,12.2953074 C22.7189888,12.2901405 22.7261026,12.2912404 22.7534333,12.2908823 C22.7636401,12.2919566 22.7738469,12.2930053 22.7840819,12.294054 Z" id="Fill-37" fill="#0092FF"></path>
                    <path d="M27.696631,11.9980374 C27.7441503,12.0073142 27.7567458,12.0078326 27.8019751,12.0245856 C27.869819,12.0496877 27.9313652,12.0893327 27.9814609,12.139919 C28.0146672,12.1736705 28.0198199,12.1845845 28.0467285,12.2229744 L30.9187874,16.883023 C30.9411158,16.9243869 30.9485586,16.9341277 30.9634442,16.978684 C31.0023757,17.0961183 30.9903527,17.2259673 30.9302379,17.3350798 C30.9133485,17.3661028 30.8927377,17.3951885 30.8686917,17.4218186 C30.856955,17.4351064 30.8435007,17.4470572 30.830619,17.4596901 L22.3522196,25.0040292 C22.3381641,25.0151887 22.3247385,25.0271395 22.3100533,25.0375351 C22.280597,25.0583808 22.248822,25.0759796 22.2152436,25.0900313 C22.0799279,25.1467021 21.9214537,25.1413543 21.7906895,25.0756794 C21.7582561,25.0593903 21.7278266,25.0396633 21.7000306,25.0169077 C21.6861469,25.0055299 21.6736373,24.9927332 21.6604407,24.9806187 L13.7643825,16.8823681 C13.7332373,16.8465703 13.7236189,16.8386304 13.6991149,16.7981668 C13.6345058,16.69151 13.6168148,16.562234 13.6505936,16.4433808 C13.6601834,16.4095748 13.6737522,16.3769147 13.6910137,16.3460282 C13.6996302,16.3305849 13.7100501,16.3161512 13.7195826,16.301199 L16.9310043,11.8469607 C16.9605751,11.8104807 16.9665579,11.7999214 17.0022547,11.7685165 C17.0692112,11.7096083 17.1532002,11.6692539 17.2427141,11.6530739 C17.2904625,11.6444246 17.3029149,11.6461163 17.3512644,11.6451613 L27.6425276,11.9932898 C27.660562,11.9948723 27.6785965,11.9964548 27.696631,11.9980374 Z M17.5848536,12.585673 L14.7472891,16.5213612 L22.0431433,24.0040363 L29.8770828,17.0331993 L27.3393769,12.915657 C24.0880218,12.8056714 20.8363804,12.6956586 17.5848536,12.585673 Z" id="Fill-38" fill="#0092FF"></path>
                    <path d="M18.4993899,13.4855203 C18.6058071,13.493337 18.7083321,13.5156872 18.8030432,13.5563958 C18.8655548,13.58324 18.9234076,13.6171121 18.9745079,13.6567689 C19.1552904,13.7970616 19.2414798,14.005218 19.2017318,14.2055338 C19.184718,14.2913254 19.1449111,14.3711171 19.0884737,14.4446698 C18.5757603,15.0641429 18.0371871,15.6692974 17.5113521,16.2815037 C17.4435624,16.3576141 17.3596435,16.4217248 17.2584454,16.468003 C17.1737303,16.5067753 17.0799628,16.5322809 16.9835416,16.5428226 C16.8871203,16.5533643 16.7883696,16.5488942 16.6940124,16.5296993 C16.625397,16.5157393 16.5591996,16.4940823 16.4978969,16.4654931 C16.3126914,16.3791278 16.1779375,16.2307554 16.1312307,16.06173 C16.1138336,15.9987668 16.1086145,15.9336522 16.1158092,15.8693981 C16.1238001,15.7979968 16.1470945,15.7278145 16.1844246,15.6628194 C16.1994038,15.6367162 16.2169483,15.6119995 16.2356723,15.5875934 C16.7483858,14.9681204 17.2869589,14.3629658 17.8127939,13.7507834 C17.8491804,13.7099314 17.8893706,13.6721152 17.9361659,13.638793 C18.0359487,13.5677263 18.1582297,13.5183645 18.2883247,13.4966596 C18.340575,13.4879347 18.3931496,13.4844447 18.4464025,13.483871 C18.4729109,13.4843251 18.4727045,13.4843251 18.4993899,13.4855203 Z" id="Fill-39" fill-opacity="0.5" fill="#FFFFFF"></path>
                    <path d="M17.9938032,17.7745849 C18.335636,17.7865919 18.603293,18.0707892 18.5911521,18.4088266 C18.5790353,18.7468879 18.2916674,19.0115917 17.9498588,18.9996087 C17.608026,18.9876017 17.340369,18.7034044 17.3525099,18.365367 C17.3646267,18.0273057 17.6519946,17.7626018 17.9938032,17.7745849 Z" id="Fill-40" fill-opacity="0.7" fill="#FFFFFF"></path>
                    <polygon id="Fill-41" fill="#FFD200" points="40.9014085 20.8387097 7.43661972 20.8387097 8.85229537 34.9354839 39.4857328 34.9354839"></polygon>
                    <polygon id="Stroke-42" stroke="#964304" stroke-width="2.47887324" stroke-linecap="round" stroke-linejoin="round" points="40.9014085 20.8387097 7.43661972 20.8387097 8.85229537 34.9354839 39.4857328 34.9354839"></polygon>
                    <polygon id="Fill-43" fill="#D58040" points="37.1830986 21.4516129 9.29577465 21.4516129 10.4317874 32.483871 36.0470858 32.483871"></polygon>
                    <polygon id="Stroke-44" stroke="#964304" stroke-width="2.47887324" stroke-linecap="round" stroke-linejoin="round" points="37.1830986 21.4516129 9.29577465 21.4516129 10.4317874 32.483871 36.0470858 32.483871"></polygon>
                    <line x1="10.5352113" y1="29.1129032" x2="36.5633803" y2="29.1129032" id="Stroke-45" stroke="#964304" stroke-width="2.47887324" stroke-linecap="round" stroke-linejoin="round"></line>
                    <line x1="9.91549296" y1="24.8225806" x2="37.1830986" y2="24.8225806" id="Stroke-46" stroke="#964304" stroke-width="2.47887324" stroke-linecap="round" stroke-linejoin="round"></line>
                    <path d="M27.2676056,21.7580854 C27.2676056,20.9123913 26.5677707,20.2258065 25.7061077,20.2258065 L21.3924271,20.2258065 C20.5306506,20.2258065 19.8309859,20.9123913 19.8309859,21.7580854 L19.8309859,24.8225876 C19.8309859,25.6682817 20.5306506,26.3548387 21.3924271,26.3548387 L25.7061077,26.3548387 C26.5677707,26.3548387 27.2676056,25.6682817 27.2676056,24.8225876 L27.2676056,21.7580854 Z" id="Fill-47" fill="#FFD200"></path>
                    <path d="M27.2676056,21.7580854 C27.2676056,20.9123913 26.5677707,20.2258065 25.7061077,20.2258065 L21.3924271,20.2258065 C20.5306506,20.2258065 19.8309859,20.9123913 19.8309859,21.7580854 L19.8309859,24.8225876 C19.8309859,25.6682817 20.5306506,26.3548387 21.3924271,26.3548387 L25.7061077,26.3548387 C26.5677707,26.3548387 27.2676056,25.6682817 27.2676056,24.8225876 L27.2676056,21.7580854 Z" id="Stroke-48" stroke="#964304" stroke-width="2.47887324" stroke-linecap="round" stroke-linejoin="round"></path>
                    <path d="M24.1690141,20.8387097 C24.8531831,20.8387097 25.4084507,21.3879935 25.4084507,22.0645161 C25.4084507,22.7410694 24.8531831,23.2903226 24.1690141,23.2903226 C23.484938,23.2903226 22.9295775,22.7410694 22.9295775,22.0645161 C22.9295775,21.3879935 23.484938,20.8387097 24.1690141,20.8387097 Z" id="Fill-49" fill="#964304"></path>
                    <polygon id="Fill-50" fill="#964304" points="24.188395 22.6774194 23.5299149 22.6774194 22.9295775 25.1290323 24.7887324 25.1290323"></polygon>
                    <polygon id="Fill-51" fill="#FFFFFF" points="7.11981629 4.90322581 8.62970952 7.00708167 11.1549296 7.65457572 9.02764417 9.14778214 8.37314146 11.6451613 6.86324822 9.54136256 4.33802817 8.89415411 6.4652847 7.40066209"></polygon>
                    <polygon id="Stroke-52" stroke="#FFD145" stroke-width="1.23943662" stroke-linecap="round" stroke-linejoin="round" points="7.11981629 4.90322581 8.62970952 7.00708167 11.1549296 7.65457572 9.02764417 9.14778214 8.37314146 11.6451613 6.86324822 9.54136256 4.33802817 8.89415411 6.4652847 7.40066209"></polygon>
                    <polygon id="Fill-53" fill="#FFFFFF" points="42.0240397 25.7419355 42.4677947 27.5730987 44 28.6910589 42.1485384 29.129921 41.0179328 30.6451613 40.5744588 28.8139981 39.0422535 27.6960657 40.8937151 27.2571758"></polygon>
                    <polygon id="Stroke-54" stroke="#FFD145" stroke-width="1.23943662" stroke-linecap="round" stroke-linejoin="round" points="42.0240397 25.7419355 42.4677947 27.5730987 44 28.6910589 42.1485384 29.129921 41.0179328 30.6451613 40.5744588 28.8139981 39.0422535 27.6960657 40.8937151 27.2571758"></polygon>
                    <polygon id="Fill-55" fill="#FFFFFF" points="36.538336 9.19354839 37.8490609 11.3889814 40.2816901 12.2332587 38.0617075 13.5296295 37.2081429 15.9354839 35.897418 13.7399625 33.4647887 12.8956852 35.6847714 11.5993144"></polygon>
                    <polygon id="Stroke-56" stroke="#FFD145" stroke-width="0.61971831" stroke-linecap="round" stroke-linejoin="round" points="36.538336 9.19354839 37.8490609 11.3889814 40.2816901 12.2332587 38.0617075 13.5296295 37.2081429 15.9354839 35.897418 13.7399625 33.4647887 12.8956852 35.6847714 11.5993144"></polygon>
                    <polygon id="Fill-57" fill="#FFFFFF" points="3.09859155 12.885928 4.64308381 13.4349526 6.18205659 12.8709677 5.62690583 14.398488 6.1971831 15.9205236 4.65269084 15.371499 3.11371806 15.9354839 3.66886882 14.4079894"></polygon>
                    <polygon id="Stroke-58" stroke="#FFD145" stroke-width="1.23943662" stroke-linecap="round" stroke-linejoin="round" points="3.09859155 12.885928 4.64308381 13.4349526 6.18205659 12.8709677 5.62690583 14.398488 6.1971831 15.9205236 4.65269084 15.371499 3.11371806 15.9354839 3.66886882 14.4079894"></polygon>
                    <polygon id="Fill-59" fill="#71D8FF" points="0.61971831 31.1604803 1.908292 26.8398296 10.0873759 24.516129 13.6338028 27.4631251 9.06431744 35.5483871"></polygon>
                    <path d="M13.6338028,27.3593017 L0.734079871,31.2580645 L0.61971831,30.8664759 L13.5194696,26.9677419 C13.5575902,27.0982619 13.5957107,27.2287818 13.6338028,27.3593017 Z" id="Fill-60" fill="#0092FF"></path>
                    <path d="M4.49545683,30.0338492 C4.50964229,30.0374301 4.51334521,30.0378344 4.52701335,30.0433212 C4.54152554,30.0491257 4.55459468,30.056865 4.5677455,30.0654996 L4.57479739,30.0704955 C4.60891329,30.0983051 4.63712084,30.1326412 4.66464772,30.1675259 C4.69903589,30.2111607 4.73260723,30.2555175 4.76585186,30.300163 C4.87179356,30.4424743 4.97523034,30.5868647 5.07839485,30.7314285 C5.36651489,31.1351443 5.65082311,31.54195 5.93466845,31.9490445 C6.79682317,33.1855758 7.65146313,34.4279981 8.50487785,35.6713445 L8.67605634,35.9209957 L8.36454798,36.1612903 C8.05647028,35.7120049 7.74798416,35.263066 7.43928022,34.8143004 C6.77849915,33.85497 6.11728243,32.8959573 5.45018461,31.9415651 C5.20502936,31.5908406 4.95946569,31.2404049 4.71036247,30.8928282 C4.62887095,30.7790773 4.54707993,30.6655287 4.46360081,30.5534239 C4.44288078,30.5255854 4.41736873,30.4916825 4.39596802,30.4639018 C4.3774534,30.439933 4.35888434,30.4142315 4.33802817,30.3922552 C4.3438276,30.3977421 4.34388205,30.3975111 4.35000821,30.402507 C4.36805996,30.4153288 4.37424057,30.4208157 4.39836402,30.4300567 C4.40574264,30.4328867 4.41380194,30.4332044 4.42150729,30.4347927 C4.4457941,30.3010582 4.3693941,30.0081188 4.49545683,30.0338492 Z" id="Fill-61" fill="#0092FF"></path>
                    <path d="M9.2201319,29.099575 C9.22903608,29.093815 9.23935295,29.0888903 9.24680164,29.0822663 C9.26889086,29.0626825 9.28614272,29.0392684 9.29577465,29.0154798 C9.29059481,29.0321261 9.28794068,29.0492043 9.28473004,29.0660521 C9.2570757,29.2266968 9.23922452,29.3880904 9.22124492,29.5493399 C9.20039715,29.7363363 9.18151857,29.9234192 9.1631965,30.1105021 C9.11512247,30.6012777 9.07158615,31.0922262 9.02912005,31.5832323 C8.90608821,33.0065135 8.79401536,34.4301979 8.68451103,35.8539687 L8.66113755,36.1612903 L8.05633803,36.1404969 C8.09837605,35.5869667 8.14152709,35.0334365 8.18489217,34.479935 C8.27894261,33.2958065 8.3737636,32.111678 8.4801429,30.9280103 C8.5161021,30.5275217 8.5530459,30.1270331 8.5949555,29.7268036 C8.61130837,29.5705077 8.62830337,29.4142405 8.64812374,29.2581173 C8.65634299,29.1936924 8.6648619,29.1292675 8.67526438,29.0649865 C8.68211375,29.0226798 8.68969087,28.9804882 8.70094952,28.9386134 L8.70672868,28.9200952 C8.71413456,28.9017786 8.7143058,28.8994458 8.72402334,28.8823964 C8.74037622,28.8537119 8.76696034,28.829405 8.7982106,28.8072868 L8.79953767,28.8064516 C8.93973574,28.9041402 9.07993382,29.0018576 9.2201319,29.099575 Z" id="Fill-62" fill="#0092FF"></path>
                    <path d="M5.92740832,25.5506467 C5.94911506,25.5487138 5.95466354,25.5470737 5.97645147,25.5496802 C6.00911983,25.5536047 6.04062437,25.5667548 6.06728414,25.5875488 C6.07391525,25.5927327 6.07992384,25.5988244 6.08625723,25.6044476 L9.03379897,28.5947171 L9.5359499,24.516129 L9.91549296,24.5708378 L9.36416356,29.0487006 L9.35934586,29.0748835 C9.35672048,29.083289 9.35458228,29.0919288 9.35144266,29.1001585 C9.34519047,29.1166473 9.33696248,29.1321989 9.32702935,29.1464033 C9.2761728,29.2190945 9.18447402,29.2474154 9.10582094,29.21476 C9.09042053,29.2083754 9.07585916,29.1998527 9.06251574,29.1894264 C9.0558305,29.1842426 9.0498219,29.1781215 9.04346145,29.172469 L6.05588946,26.1415779 L4.95157965,30.493095 L4.94370352,30.5179014 C4.93268776,30.5420635 4.92137427,30.5636776 4.90378153,30.5831537 C4.85197768,30.6404105 4.77205251,30.6602673 4.70235819,30.6332351 C4.67948763,30.624361 4.65826808,30.6107717 4.64010696,30.593375 C4.63404423,30.5875761 4.62871228,30.5809864 4.6230014,30.5747775 L1.85915493,27.1626527 L2.14710748,26.8895773 L4.67653746,30.0122843 L5.77069761,25.7007152 L5.77873614,25.6755866 C5.78236295,25.6676205 5.78555671,25.65942 5.78964364,25.6517467 C5.80612668,25.620995 5.82991748,25.5950464 5.85822826,25.5770346 C5.87714722,25.5649975 5.88280396,25.564031 5.90337394,25.556182 C5.9113854,25.5543369 5.91939686,25.5524918 5.92740832,25.5506467 Z" id="Fill-63" fill="#0092FF"></path>
                    <path d="M9.66635037,23.909662 C9.70557823,23.9048289 9.71546286,23.9019574 9.75514259,23.9037769 C9.81456335,23.9065347 9.87316509,23.9227968 9.92561011,23.9511134 C9.96060171,23.9699911 9.96760567,23.977582 9.99884111,24.0019468 L13.4964189,27.0615032 C13.5249996,27.089507 13.5335004,27.0954774 13.5571105,27.1280585 C13.6193555,27.2139465 13.6455074,27.3233179 13.6289294,27.4282826 C13.624213,27.4581344 13.6161641,27.4873324 13.6049521,27.5153647 C13.5993603,27.5293524 13.5922151,27.5426862 13.5858324,27.5563327 L9.07925978,35.9504105 C9.0714368,35.9632326 9.06429162,35.976538 9.0557626,35.9888768 C9.03864807,36.0136396 9.01882232,36.0363838 8.99665251,36.056683 C8.90732369,36.1385055 8.78311624,36.1756639 8.66387935,36.1562176 C8.63431018,36.1513844 8.60536234,36.1432249 8.57760064,36.1318812 C8.56376216,36.1262236 8.55057324,36.1190307 8.53704542,36.112577 L0.208763819,31.5570746 C0.174873656,31.5359508 0.165271443,31.5319422 0.135222165,31.5052745 C0.0560321513,31.4349664 0.00703262412,31.3338398 0.000706460381,31.2277378 C-0.00107277317,31.1975733 0.000508767764,31.1673234 0.00545108319,31.1375 C0.00790812,31.122631 0.0120314231,31.1080747 0.0153074722,31.0933762 L1.2861321,26.6076985 C1.29906684,26.5701137 1.30084608,26.5599072 1.31990929,26.5248526 C1.35566341,26.4591217 1.40971822,26.4041091 1.47461789,26.3673771 C1.50924234,26.3478171 1.5193529,26.3459122 1.55654736,26.3324647 L9.6229992,23.9200106 C9.637459,23.9165706 9.65191881,23.9131021 9.66635037,23.909662 Z M1.99438002,27.0406638 L0.871514196,31.004105 L8.56669931,35.2133547 L12.7306989,27.4573384 L9.64031143,24.7539854 C7.09165821,25.516202 4.54303323,26.2784471 1.99438002,27.0406638 Z" id="Fill-64" fill="#0092FF"></path>
                    <path d="M2.94403383,27.5981014 C3.02798336,27.579852 3.11357163,27.5750275 3.1989874,27.5878493 C3.25536583,27.5963185 3.31039302,27.6119196 3.36211398,27.6340759 C3.54502045,27.7124749 3.67706846,27.8715017 3.71024577,28.0533403 C3.72444819,28.1312149 3.71930197,28.2092993 3.69943583,28.285863 C3.50356318,28.9396952 3.28336817,29.5872346 3.0751331,30.237868 C3.0473895,30.3193087 3.00351725,30.3942204 2.94075635,30.4578311 C2.8881729,30.511111 2.82452076,30.5550826 2.75402615,30.5867831 C2.6835603,30.6184836 2.60656823,30.637808 2.52822492,30.6434192 C2.47127149,30.6475096 2.41374307,30.6443894 2.35773838,30.6341372 C2.18851683,30.6032495 2.03827018,30.5070731 1.94888693,30.3724574 C1.91559462,30.322324 1.89092726,30.2674709 1.87603484,30.2104415 C1.85947494,30.147093 1.85504746,30.0811748 1.86298242,30.0164366 C1.86617365,29.9904522 1.87175112,29.9650446 1.87833483,29.939637 C2.07420748,29.285831 2.29443124,28.6382653 2.50263757,27.9876582 C2.51752998,27.9439225 2.53630363,27.9019436 2.56154599,27.8622721 C2.61536568,27.7776326 2.69330649,27.7064442 2.78599597,27.6572023 C2.82322701,27.6374321 2.86235554,27.6220931 2.90295031,27.6090878 C2.92339145,27.6032669 2.92321895,27.6033193 2.94403383,27.5981014 Z" id="Fill-65" fill-opacity="0.5" fill="#FFFFFF"></path>
                    <path d="M3.54185467,30.6706563 C3.86965934,30.5743405 4.21483366,30.75935 4.31224965,31.0835498 C4.40963646,31.4077496 4.22256972,31.7491569 3.89476505,31.8454727 C3.56696038,31.9417885 3.22175686,31.756779 3.12437006,31.4325792 C3.02698326,31.1083794 3.21405,30.7669721 3.54185467,30.6706563 Z" id="Fill-66" fill-opacity="0.7" fill="#FFFFFF"></path>
                    <polygon id="Fill-67" fill="#71D8FF" points="6.81690141 24.4226043 10.5587892 20.2258065 20.6853057 21.8255782 22.9295775 26.9680532 13.5880843 33.7096774"></polygon>
                    <path d="M22.2337137,27.5806452 L6.1971831,24.9999472 L6.27332854,24.516129 L22.3098592,27.096827 C22.2844679,27.2580902 22.2590766,27.419382 22.2337137,27.5806452 Z" id="Fill-68" fill="#0092FF"></path>
                    <path d="M11.5846566,25.1451312 C11.6015858,25.1565265 11.6062978,25.1589684 11.6213759,25.1721039 C11.6373964,25.1860534 11.6502532,25.201266 11.6627398,25.2174609 L11.6691682,25.2265547 C11.6981802,25.2743255 11.7152777,25.3258292 11.73113,25.3775293 C11.75092,25.4421966 11.7691282,25.5072008 11.7867306,25.5723172 C11.8428697,25.7798476 11.8943306,25.9882762 11.945354,26.1967329 C12.0877886,26.7788791 12.2232226,27.3622322 12.3578825,27.9456414 C12.7668434,29.7177336 13.1620724,31.4920151 13.5551138,33.2666053 L13.6338028,33.6228368 L13.0684735,33.7096774 C12.9268804,33.0686177 12.7845131,32.4276422 12.6417083,31.786779 C12.3353326,30.4163034 12.0281828,29.0459401 11.7102965,27.6772889 C11.5934746,27.1743489 11.4759122,26.6714651 11.3518878,26.169704 C11.311298,26.0055096 11.270237,25.8413995 11.2260122,25.6778506 C11.2150402,25.6372371 11.2013083,25.58767 11.1893602,25.5467758 C11.1790277,25.511439 11.1696375,25.4742777 11.1549296,25.4397829 C11.1594059,25.4487364 11.1596078,25.4484837 11.1648246,25.4571004 C11.18135,25.4803683 11.1862975,25.4894902 11.2131554,25.5122529 C11.2214013,25.5192136 11.2320368,25.5238728 11.2414606,25.5296828 C11.3553881,25.4012182 11.4306105,25.050123 11.5846566,25.1451312 Z" id="Fill-69" fill="#0092FF"></path>
                    <path d="M17.2589673,26.2091458 C17.2679117,26.2059459 17.2773964,26.2042163 17.2857733,26.1996038 C17.3105526,26.186026 17.3338457,26.1665961 17.3521127,26.1440241 C17.3403851,26.1603405 17.3302247,26.1780407 17.3197672,26.1952797 C17.2221631,26.3606641 17.1309364,26.5303151 17.0396826,26.6997354 C16.9338638,26.8962249 16.8293421,27.0934927 16.7251988,27.2909912 C16.4520318,27.8089959 16.1818914,28.3288456 15.9125075,28.84907 C15.1315403,30.3571616 14.3579231,31.8695485 13.5860084,33.3829156 L13.4196059,33.7096774 L13.0140845,33.4746165 C13.3138142,32.8860704 13.6142735,32.297928 13.914922,31.709872 C14.5589139,30.4522642 15.2034733,29.1949446 15.855707,27.942151 C16.0764239,27.5182687 16.2977353,27.0947323 16.5223705,26.6732139 C16.6100844,26.5086366 16.6982306,26.3442612 16.7882414,26.1810676 C16.8253969,26.1137262 16.8627956,26.0465288 16.9013832,25.9801098 C16.926784,25.9364071 16.9526442,25.893079 16.9808824,25.8513942 L16.9939341,25.8332039 C17.0079586,25.8158497 17.0092016,25.8133705 17.0242259,25.7982071 C17.0495186,25.7726658 17.0797024,25.7555133 17.1119938,25.7423967 L17.1133179,25.7419355 C17.1618767,25.8976626 17.2104085,26.0533898 17.2589673,26.2091458 Z" id="Fill-70" fill="#0092FF"></path>
                    <path d="M15.3891296,20.922226 C15.4149653,20.9327087 15.4221356,20.9340983 15.4457519,20.9497167 C15.4811479,20.973129 15.5105687,21.0062386 15.530543,21.045088 C15.5355224,21.0547853 15.5393067,21.0651169 15.5436885,21.0751465 L17.4028334,26.1492848 L20.0439629,21.8605934 L20.4507042,22.1429616 L17.5510187,26.8514442 L17.5322394,26.8780286 C17.5249553,26.8859737 17.518155,26.8944323 17.5104157,26.9018336 C17.4948801,26.9166967 17.4776089,26.9293847 17.4590288,26.9395653 C17.363966,26.9915861 17.2446609,26.9700467 17.1711658,26.8875748 C17.1567969,26.8714429 17.1444481,26.8534078 17.134404,26.8339227 C17.1294247,26.8242254 17.1256119,26.8138334 17.1212017,26.8038038 L15.2368186,21.6607576 L11.7681789,25.905464 L11.7465828,25.9287253 C11.7217145,25.9494792 11.6978421,25.967182 11.6677953,25.9787824 C11.5795045,26.0129494 11.4779543,25.9887516 11.411857,25.9177895 C11.390204,25.8945584 11.3727905,25.8669167 11.3608117,25.8367978 C11.3568282,25.8267682 11.3540397,25.8162553 11.3506538,25.8059841 L9.91549296,20.3649514 L10.383466,20.2258065 L11.6969032,25.2053589 L15.1337035,20.9995925 L15.1556411,20.9760291 C15.1638072,20.969232 15.1716319,20.9618609 15.1801963,20.9556377 C15.2146534,20.9306545 15.2550288,20.9153987 15.2965707,20.9116225 C15.3243128,20.9091151 15.3312839,20.9113506 15.3587983,20.9144924 C15.3688993,20.9170602 15.3790002,20.9196582 15.3891296,20.922226 Z" id="Fill-71" fill="#0092FF"></path>
                    <path d="M20.9073812,21.8036409 C20.9537283,21.8185452 20.9662921,21.8205324 21.0095706,21.8426681 C21.0744449,21.8758715 21.1312136,21.9229304 21.1747237,21.9795943 C21.2037304,22.0173794 21.2075517,22.0289717 21.229466,22.0706761 L23.5086947,27.0873485 C23.5257166,27.1315093 23.5320564,27.1421907 23.5411174,27.1886424 C23.5649712,27.3111336 23.5360803,27.4401108 23.4618265,27.5425916 C23.4407228,27.5717378 23.4162321,27.5985379 23.3888465,27.6224399 C23.3751537,27.634391 23.3601293,27.644824 23.3457707,27.6560022 L13.8587448,34.2327394 C13.8431992,34.2422891 13.8281748,34.2526945 13.8120792,34.2614163 C13.7798302,34.2788599 13.7456417,34.2927981 13.7101214,34.3029551 C13.5669694,34.3439419 13.4085904,34.3199018 13.2858473,34.2385907 C13.2554221,34.2184147 13.2274285,34.195037 13.2024746,34.1688993 C13.1899977,34.1558719 13.1791129,34.1415196 13.1674465,34.1278297 L6.29079516,25.0679005 C6.26416223,25.0282937 6.25556442,25.0191855 6.23619765,24.9756871 C6.18516085,24.8610069 6.18414764,24.7291315 6.23344751,24.6137613 C6.24745875,24.5809443 6.26529123,24.5497557 6.28662652,24.5207751 C6.2972797,24.5063125 6.3096119,24.493009 6.32110459,24.4791535 L10.1212763,20.3850013 C10.1556675,20.351853 10.1630494,20.341972 10.2029699,20.3146199 C10.2777737,20.2633657 10.3673124,20.2327291 10.4592539,20.2270158 C10.5082933,20.2239522 10.5205965,20.2271262 10.5692306,20.2318735 L20.8534785,21.7924903 C20.8714557,21.7962164 20.889404,21.7999149 20.9073812,21.8036409 Z M10.6818994,21.203633 L7.32412388,24.8211241 L13.6780172,33.192365 L22.4438696,27.1155562 L20.4299859,22.6828834 C17.1806238,22.1897999 13.9312616,21.6967165 10.6818994,21.203633 Z" id="Fill-72" fill="#0092FF"></path>
                    <path d="M11.2043556,21.4639805 C11.3006578,21.48333 11.3914135,21.5175267 11.4724357,21.5701876 C11.5258886,21.6049407 11.5741485,21.6465737 11.6153937,21.6935688 C11.7613696,21.8598477 11.8113423,22.0874631 11.7471771,22.2936802 C11.7196893,22.3819795 11.6721908,22.4616285 11.6103366,22.5329559 C11.0550899,23.1298551 10.478201,23.7089983 9.91199727,24.296893 C9.83937637,24.3697127 9.75367773,24.4282669 9.65462946,24.4662829 C9.57170407,24.4981273 9.48236215,24.5150992 9.39266678,24.5160857 C9.30294422,24.5170468 9.21322166,24.5020225 9.12950779,24.471974 C9.06865958,24.4501457 9.0111012,24.4204513 8.95895336,24.3840035 C8.8014223,24.2739266 8.69870356,24.1039801 8.6794268,23.9215894 C8.67227619,23.853626 8.67651762,23.7847014 8.69201515,23.7179774 C8.70922557,23.6438424 8.7403022,23.5725656 8.78347778,23.5082192 C8.80082415,23.4823693 8.82031841,23.4582647 8.84084584,23.4345901 C9.39606536,22.8376909 9.97295423,22.2585477 10.5391852,21.670653 C10.5781737,21.6315747 10.6202073,21.596088 10.6676244,21.5659889 C10.7688205,21.5017942 10.8875806,21.4627412 11.0096576,21.4535597 C11.0586788,21.4498668 11.1072921,21.4517132 11.1560957,21.456696 C11.1802936,21.4599336 11.1801033,21.4599083 11.2043556,21.4639805 Z" id="Fill-73" fill-opacity="0.5" fill="#FFFFFF"></path>
                    <path d="M10.0128861,25.749629 C10.3506366,25.8027935 10.5811881,26.117141 10.5274314,26.451171 C10.4736747,26.7851771 10.1558261,27.0132129 9.81809982,26.9600484 C9.48034936,26.9068839 9.24979785,26.5925364 9.30355451,26.2585064 C9.35731117,25.9245003 9.67515982,25.6964645 10.0128861,25.749629 Z" id="Fill-74" fill-opacity="0.7" fill="#FFFFFF"></path>
                </g>
            </g>
        </g>
    </g>
</svg>