<?xml version="1.0" encoding="UTF-8"?>
<svg width="48px" height="48px" viewBox="0 0 48 48" version="1.1" xmlns="http://www.w3.org/2000/svg" xmlns:xlink="http://www.w3.org/1999/xlink">
    <title>895CC3AD-FDC3-4B23-A3FD-7D80EB6E52DB</title>
    <g id="Web" stroke="none" stroke-width="1" fill="none" fill-rule="evenodd">
        <g id="select-amount-web" transform="translate(-24.000000, -157.000000)">
            <g id="gem-set-1" transform="translate(24.000000, 157.000000)">
                <rect id="Rectangle-Copy-12" x="0" y="0" width="48" height="48"></rect>
                <g id="Group-9-Copy-6" transform="translate(8.000000, 11.000000)">
                    <polygon id="Fill-1" fill="#71D8FF" points="0.733333333 9.86173225 6.4547647 0.75 25.8119558 0.75 31.5333333 9.86173225 16.1333333 25.5"></polygon>
                    <polygon id="Fill-2" fill="#0092FF" points="0.733333333 10.5 31.5333333 10.5 31.5333333 9.75 0.733333333 9.75"></polygon>
                    <path d="M10.876717,9.76974021 C10.9078903,9.78776433 10.9163516,9.79134677 10.9450756,9.8132332 C10.9755809,9.83651902 11.0013546,9.86316337 11.0267942,9.89182285 L11.0400985,9.90799978 C11.1023894,9.99448197 11.1464217,10.0914876 11.1883944,10.1891649 C11.240888,10.3114154 11.2908766,10.4346176 11.3399745,10.5582675 C11.496342,10.9523353 11.6454172,11.3494257 11.793713,11.746628 C12.2078169,12.8559511 12.6108988,13.9694164 13.0127004,15.0833294 C14.2331908,18.4666025 15.4318599,21.857824 16.6270776,25.2501651 L16.8666667,25.9312194 L15.970323,26.25 C15.5392407,25.0244158 15.1068225,23.7992793 14.673792,22.5743108 C13.746108,19.9552717 12.817255,17.3365684 11.8713123,14.7240785 C11.52373,13.7640421 11.174923,12.8043417 10.8159291,11.8485035 C10.6984169,11.5357682 10.580181,11.2232568 10.4569351,10.9127046 C10.4263742,10.8356263 10.3884652,10.7415874 10.3562342,10.6641172 C10.3283453,10.5972265 10.3014026,10.5264734 10.2666667,10.4624374 C10.2767423,10.4788942 10.2770207,10.4783345 10.2882096,10.4938957 C10.3224446,10.5354855 10.3334109,10.5521102 10.3843459,10.5898937 C10.3999882,10.6014806 10.4188035,10.6078618 10.4360045,10.6168739 C10.5820737,10.3340295 10.5954337,9.6229164 10.876717,9.76974021 Z" id="Fill-3" fill="#0092FF"></path>
                    <path d="M22.5636159,10.5994271 C22.5808158,10.5904049 22.59963,10.5839605 22.6152714,10.5724166 C22.6615276,10.5382333 22.7030525,10.4933467 22.7333333,10.4440892 C22.7144635,10.4792251 22.6991561,10.5164905 22.683125,10.5529714 C22.5347266,10.9023135 22.4006337,11.2577078 22.2664294,11.6127658 C22.1107947,12.0244225 21.9579989,12.4371999 21.8060937,12.8502574 C21.4076557,13.9337561 21.0158972,15.0197764 20.625753,16.1063571 C19.49473,19.2560402 18.3799606,22.4115513 17.2690321,25.5684634 L17.0296241,26.25 L16.1333333,25.9309745 C16.5644458,24.7033457 16.9971724,23.4763332 17.4302887,22.2494328 C18.3586973,19.6252199 19.2883304,17.0013993 20.2349408,14.3837988 C20.5552832,13.4981151 20.8769616,12.6128796 21.2060431,11.7304461 C21.3345141,11.3858672 21.4638756,11.0416245 21.5974676,10.6990069 C21.65263,10.5576226 21.7083489,10.4164063 21.7666841,10.2763108 C21.8050918,10.1841279 21.8445571,10.0925055 21.8893104,10.0032927 L21.9103511,9.96412197 C21.9336184,9.92624014 21.9353996,9.92108463 21.9613944,9.88706944 C22.0050901,9.8297984 22.0612544,9.78704125 22.1229294,9.75134492 L22.1255455,9.75 C22.2715504,10.033161 22.417611,10.316266 22.5636159,10.5994271 Z" id="Fill-4" fill="#0092FF"></path>
                    <path d="M16.4304535,0.754431654 C16.4825386,0.764859075 16.4966141,0.765171898 16.5459607,0.784983998 C16.6198985,0.814702148 16.6852375,0.862668285 16.7343103,0.923147327 C16.7465237,0.93821495 16.7566559,0.954742413 16.7678835,0.970539956 L21.7479466,9.08343852 L25.546375,1.01313597 L26.4,1.37720938 L22.2297469,10.2375455 L22.2015958,10.2882227 C22.1900396,10.3038639 22.1794692,10.3202349 22.1668724,10.335094 C22.1415693,10.3649164 22.1123775,10.3915064 22.0799545,10.414186 C21.9141149,10.5302432 21.6811288,10.527897 21.5179181,10.408503 C21.4860427,10.3851456 21.4573987,10.3579822 21.4328075,10.3276384 C21.4205393,10.3125186 21.4103524,10.295939 21.3991248,10.2800894 L16.3514223,2.0570251 L10.9673305,10.2907775 L10.9329357,10.3366581 C10.8915854,10.3791499 10.8512208,10.4162193 10.7974927,10.4446341 C10.6393755,10.5283141 10.439415,10.5162704 10.2935659,10.4143945 C10.2457528,10.3810268 10.2047859,10.3389522 10.1734034,10.2910382 C10.1629973,10.2751363 10.1547273,10.2579832 10.1453618,10.2414558 L5.86666667,1.38111966 L6.71662212,1.00922569 L10.6323651,9.11805755 L15.9670008,0.959903986 L16.0019432,0.913397688 C16.0155806,0.899424944 16.028287,0.884618006 16.0428554,0.871531593 C16.1011841,0.819081665 16.1735883,0.781438675 16.2515242,0.763034276 C16.3034997,0.750729919 16.3174109,0.752554718 16.3705913,0.75 C16.3905271,0.751459839 16.4105177,0.752971815 16.4304535,0.754431654 Z" id="Fill-5" fill="#0092FF"></path>
                    <path d="M26.3897301,0.00591881755 C26.4803751,0.0214626281 26.5043149,0.0216285763 26.5915322,0.0524396172 C26.722222,0.0986838365 26.8421933,0.174798724 26.9404556,0.273814457 C27.0060726,0.339917139 27.0166823,0.361711663 27.0702749,0.437660602 L32.8552325,9.68241108 C32.900555,9.76466605 32.9156262,9.78386072 32.9468025,9.87314083 C33.0290685,10.1084 33.0154119,10.3723129 32.9093692,10.5975045 C32.8792268,10.6615605 32.8420656,10.7219103 32.798593,10.7774476 C32.7769383,10.8052163 32.7522367,10.8303298 32.7290586,10.8568262 L17.1579227,26.7232953 C17.1319697,26.7468599 17.1073226,26.7719734 17.0801726,26.7940445 C17.0257094,26.8382974 16.9665671,26.8761335 16.9038338,26.9069446 C16.6507786,27.0310185 16.3493541,27.0310185 16.0963533,26.9069446 C16.0335656,26.8761335 15.9744232,26.8382974 15.9200145,26.7940445 C15.8928101,26.7719734 15.8681629,26.7468599 15.8422644,26.7232953 L0.271128501,10.8568262 C0.20942896,10.7864088 0.190603527,10.7709757 0.141200368,10.6906568 C0.0109457828,10.4790175 -0.0318195071,10.218313 0.023895069,9.97514363 C0.0397280199,9.90605388 0.0632326067,9.83895551 0.093810333,9.7751761 C0.109099196,9.74331406 0.12787022,9.71333276 0.144900164,9.68241108 L5.92985778,0.437660602 C5.98345041,0.361711663 5.99411453,0.339917139 6.05967709,0.273814457 C6.18269531,0.149906501 6.33939256,0.0623965065 6.50827736,0.023454006 C6.59832387,0.00265517049 6.62215491,0.00525502493 6.71388809,0 L26.2862446,0 C26.3207397,0.00199137787 26.3552349,0.00392743968 26.3897301,0.00591881755 Z M7.22407909,1.88954102 L2.11259318,10.0580071 L16.5000663,24.718365 L30.8875395,10.0580071 L25.7760536,1.88954102 L7.22407909,1.88954102 Z" id="Fill-6" fill="#0092FF"></path>
                    <path d="M9.74276914,2.25087131 C9.92421931,2.26234953 10.1002029,2.30912758 10.2642001,2.4006649 C10.3724283,2.46111299 10.4733342,2.53874956 10.5631064,2.63086367 C10.8808198,2.95663733 11.0428611,3.45256543 10.9902014,3.93839962 C10.9676831,4.14644948 10.9059459,4.34163681 10.8154716,4.52292339 C9.99006897,6.05229459 9.11967991,7.54896153 8.27145806,9.06172105 C8.16182565,9.24998684 8.02400778,9.41039346 7.8554467,9.52904013 C7.71426864,9.62842186 7.55684131,9.69642596 7.39369665,9.72855342 C7.23060214,9.76062321 7.06244227,9.75670101 6.90060157,9.71695985 C6.78294483,9.68806243 6.66879873,9.64041919 6.56247636,9.5757605 C6.24120224,9.38034245 6.00112431,9.03184308 5.90919558,8.62750998 C5.87494172,8.47690888 5.86120006,8.32025143 5.86862256,8.16480526 C5.87689765,7.99205524 5.91130197,7.82120864 5.96987958,7.66189794 C5.99340089,7.59793141 6.02138575,7.53707956 6.05142683,7.47691987 C6.87682949,5.94754867 7.74721855,4.45088173 8.59549054,2.93812222 C8.65426876,2.83706779 8.71981751,2.74316561 8.79685108,2.65953037 C8.96114924,2.48124312 9.16536844,2.35371381 9.38488402,2.29234285 C9.47300119,2.26771372 9.56212141,2.25560103 9.65259573,2.25052523 C9.69768244,2.2497754 9.69733137,2.2497754 9.74276914,2.25087131 Z" id="Fill-7" fill-opacity="0.5" fill="#FFFFFF"></path>
                    <path d="M8.06663805,11.25 C8.87617096,11.25 9.53333333,11.9221433 9.53333333,12.75 C9.53333333,13.5778567 8.87617096,14.25 8.06663805,14.25 C7.25716237,14.25 6.6,13.5778567 6.6,12.75 C6.6,11.9221433 7.25716237,11.25 8.06663805,11.25 Z" id="Fill-8" fill-opacity="0.7" fill="#FFFFFF"></path>
                </g>
            </g>
        </g>
    </g>
</svg>